<svg width="20" height="20" viewBox="0 0 20 20" fill="none" xmlns="http://www.w3.org/2000/svg">
<path fill-rule="evenodd" clip-rule="evenodd" d="M7.91671 13.3333V6.66667C7.91671 5.75 8.65837 5 9.58337 5H17.0834V4.16667C17.0834 3.25 16.3334 2.5 15.4167 2.5H3.75004C2.82504 2.5 2.08337 3.25 2.08337 4.16667V15.8333C2.08337 16.75 2.82504 17.5 3.75004 17.5H15.4167C16.3334 17.5 17.0834 16.75 17.0834 15.8333V15H9.58337C8.65837 15 7.91671 14.25 7.91671 13.3333ZM10.4167 6.66667C9.95837 6.66667 9.58337 7.04167 9.58337 7.5V12.5C9.58337 12.9583 9.95837 13.3333 10.4167 13.3333H17.9167V6.66667H10.4167ZM11.6667 10C11.6667 10.6917 12.225 11.25 12.9167 11.25C13.6084 11.25 14.1667 10.6917 14.1667 10C14.1667 9.30833 13.6084 8.75 12.9167 8.75C12.225 8.75 11.6667 9.30833 11.6667 10Z" fill="#A8B0C6"/>
</svg>
