<svg width="82" height="82" viewBox="0 0 82 82" fill="none" xmlns="http://www.w3.org/2000/svg">
<path d="M81.7741 45.2978C80.8561 54.007 77.1736 62.1935 71.2659 68.6581C65.3583 75.1228 57.5359 79.5261 48.9444 81.223C40.3529 82.9199 31.4438 81.8212 23.522 78.088C15.6001 74.3548 9.08178 68.1831 4.92159 60.4769C0.76141 52.7707 -0.821996 43.9349 0.403285 35.2636C1.62856 26.5923 5.59815 18.5411 11.7306 12.2893C17.8631 6.03747 25.8363 1.91349 34.4824 0.521355C43.1285 -0.870782 51.9931 0.542076 59.7781 4.553L58.4636 7.10429C51.2236 3.37413 42.9795 2.06017 34.9386 3.35486C26.8978 4.64955 19.4827 8.48485 13.7795 14.299C8.07628 20.1132 4.38456 27.6008 3.24505 35.6651C2.10554 43.7294 3.57811 51.9467 7.44708 59.1135C11.3161 66.2803 17.3781 72.0199 24.7455 75.4918C32.1128 78.9637 40.3982 79.9855 48.3883 78.4074C56.3783 76.8292 63.6532 72.7342 69.1473 66.7221C74.6415 60.7099 78.0662 53.0965 78.9199 44.997L81.7741 45.2978Z" fill="#0059A5"/>
</svg>
