<svg width="68" height="64" viewBox="0 0 68 68" fill="none" xmlns="http://www.w3.org/2000/svg">
<path d="M4.58436 49.5439C1.51007 43.726 0.230021 37.1272 0.906078 30.5818C1.58213 24.0365 4.18393 17.8386 8.38246 12.7719C12.581 7.70521 18.1877 3.99733 24.4935 2.11712C30.7994 0.236909 37.5211 0.268824 43.8088 2.20883C50.0965 4.14883 55.6678 7.90978 59.818 13.0161C63.9682 18.1224 66.511 24.3447 67.1249 30.8962C67.7388 37.4477 66.3961 44.0341 63.2667 49.8225C60.1373 55.6109 55.3618 60.3414 49.5439 63.4157L48.2642 60.9939C53.6031 58.1728 57.9855 53.8318 60.8573 48.5199C63.729 43.208 64.9612 37.1639 64.3978 31.1517C63.8345 25.1396 61.501 19.4296 57.6925 14.7436C53.8839 10.0577 48.7713 6.6064 43.0013 4.82611C37.2312 3.04582 31.0629 3.01654 25.2762 4.74195C19.4895 6.46737 14.3444 9.86999 10.4915 14.5195C6.63861 19.1691 4.25101 24.8567 3.63061 30.8632C3.01022 36.8697 4.18488 42.9253 7.00608 48.2642L4.58436 49.5439Z" fill="#01A0E2"/>
</svg>
