<svg width="50" height="50" viewBox="0 0 50 50" fill="none" xmlns="http://www.w3.org/2000/svg">
<path d="M49.9092 26.1594C49.6799 31.086 47.9948 35.8339 45.0671 39.8028C42.1394 43.7717 38.1005 46.7833 33.4612 48.4568C28.8219 50.1303 23.7905 50.3904 19.0033 49.2044C14.2161 48.0184 9.88815 45.4394 6.56668 41.7937C3.24521 38.1479 1.07943 33.5991 0.343208 28.7224C-0.393015 23.8458 0.333393 18.8603 2.43057 14.3965C4.52775 9.93269 7.9015 6.19101 12.1252 3.64462C16.3489 1.09822 21.2328 -0.13851 26.1594 0.0908034L26.0394 2.67045C21.623 2.46488 17.2448 3.57354 13.4585 5.85622C9.67225 8.1389 6.64789 11.4931 4.7679 15.4946C2.88791 19.4961 2.23673 23.9653 2.89671 28.3369C3.55668 32.7085 5.49818 36.7863 8.47567 40.0545C11.4532 43.3227 15.3329 45.6346 19.6243 46.6978C23.9157 47.761 28.4261 47.5277 32.5849 46.0276C36.7438 44.5274 40.3644 41.8277 42.9889 38.2698C45.6134 34.712 47.124 30.4557 47.3296 26.0393L49.9092 26.1594Z" fill="#22D192"/>
</svg>
