<svg width="17" height="17" viewBox="0 0 17 17" fill="none" xmlns="http://www.w3.org/2000/svg">
<path d="M9.02472 13.0361L10.6686 11.3922C11.0113 11.0495 11.5503 11.0018 11.9478 11.2791L14.1273 12.7991C14.5594 13.1006 14.6142 13.7193 14.2416 14.0919V14.0919C13.6404 14.6931 12.7771 14.9541 11.9714 14.6824C10.474 14.1774 7.95626 13.0857 5.85206 10.9814C3.74785 8.87724 2.65608 6.35949 2.15107 4.86206C1.87937 4.05645 2.14042 3.19309 2.7416 2.59191V2.59191C3.11417 2.21934 3.73295 2.27405 4.03436 2.70622L5.55445 4.88573C5.83166 5.2832 5.784 5.82224 5.44134 6.16489L3.79745 7.80879" stroke="white" stroke-linecap="round"/>
</svg>
