<svg width="20" height="20" viewBox="0 0 20 20" fill="none" xmlns="http://www.w3.org/2000/svg">
<path fill-rule="evenodd" clip-rule="evenodd" d="M4.16663 7.72103C4.16663 4.49603 6.77496 1.8877 9.99996 1.8877C13.225 1.8877 15.8333 4.49603 15.8333 7.72103C15.8333 11.196 12.15 15.9877 10.6416 17.8127C10.3083 18.2127 9.69996 18.2127 9.36663 17.8127C7.84996 15.9877 4.16663 11.196 4.16663 7.72103ZM7.91663 7.72103C7.91663 8.87103 8.84996 9.80436 9.99996 9.80436C11.15 9.80436 12.0833 8.87103 12.0833 7.72103C12.0833 6.57103 11.15 5.6377 9.99996 5.6377C8.84996 5.6377 7.91663 6.57103 7.91663 7.72103Z" fill="#A8B0C6"/>
</svg>
