<svg width="16" height="16" viewBox="0 0 16 16" fill="none" xmlns="http://www.w3.org/2000/svg">
<path fill-rule="evenodd" clip-rule="evenodd" d="M8 16C12.4183 16 16 12.4183 16 8C16 3.58172 12.4183 0 8 0C3.58172 0 0 3.58172 0 8C0 12.4183 3.58172 16 8 16ZM7.44123 2.6943C9.13456 2.52097 10.6746 3.14764 11.7612 4.2343L12.1879 3.80097C12.6079 3.38097 13.3279 3.68097 13.3279 4.2743V6.66764C13.3279 7.0343 13.0279 7.3343 12.6612 7.3343H10.2679C9.67456 7.3343 9.38123 6.6143 9.80123 6.1943L10.8079 5.18764C10.0879 4.46097 9.10123 4.00097 7.99456 4.00097C5.50123 4.00097 3.53456 6.2943 4.09456 8.88097C4.4079 10.361 5.60123 11.5676 7.08123 11.8943C9.05456 12.3343 10.8612 11.3076 11.6146 9.68764C11.7212 9.46764 11.9546 9.3343 12.2012 9.3343C12.6946 9.3343 13.0146 9.84764 12.8012 10.2943C11.9479 12.0876 10.1212 13.3343 7.99456 13.3343C4.84123 13.3343 2.34123 10.6076 2.7079 7.3743C2.98123 4.92764 4.99456 2.94097 7.44123 2.6943Z" fill="url(#paint0_radial_442_1026)"/>
<defs>
<radialGradient id="paint0_radial_442_1026" cx="0" cy="0" r="1" gradientUnits="userSpaceOnUse" gradientTransform="translate(10.0178) rotate(93.0608) scale(12.8183 18.9185)">
<stop stop-color="#ACF7CA"/>
<stop offset="1" stop-color="#22D091"/>
</radialGradient>
</defs>
</svg>
